<svg xmlns="http://www.w3.org/2000/svg" width="306" height="306" viewBox="0 0 80.962 80.962"><path style="-inkscape-font-specification:'Digital Desolation Plus'" d="M41.894 32.845v13.332l.953.95 2.856-2.855v-7.618h15.235V34.75l-1.905-1.905zM0 32.885v3.806h15.235v11.426h3.806V34.79l-1.901-1.905H.002zm3.808 3.806L.002 40.5v7.616h3.806V36.692zm17.138-3.807v3.807h15.235v1.905l1.905 1.905H24.755v-3.809l-3.807 3.809v7.616h3.807V44.31h13.331l1.903-1.903v-7.617l-1.903-1.905H20.948zm26.662 5.675v3.806h9.521v1.907h-8.725l-3.806 3.808h16.338V38.56H47.604zm-39.99.037v9.521h3.807v-9.521z" font-weight="400" font-family="Digital Desolation Plus" fill="#ed1c24"/><path d="M48.79 59.036l-27.469.025c.863 1.108 2.586 2.71 3.793 3.93 6.317 6.251 4.6 6.175 10.044.85 1.902.993 3.529 1.828 6.15 2.61-.017 7.52-.95 6.44 6.787 6.451 8.534.067 7.559 1 7.493-6.482 2.146-.619 4.216-1.423 6.15-2.56 5.214 5.243 3.863 5.228 9.693-.6 5.7-5.607 5.545-4.51.397-9.534 1.017-1.682 1.93-3.895 2.547-6.156 7.604.03 6.552 1.045 6.523-7.037.035-8.22.963-7.35-6.477-7.244-.454-2.27-1.505-4.442-2.44-6.156 4.98-4.962 4.96-3.804-.235-9.128-6.156-6.078-4.824-6.072-9.8-1.088-1.885-1.157-4.022-1.983-6.336-2.67-.113-7.234 1.018-6.208-7.24-6.208-8.23 0-6.94-.964-7.081 6.24-1.418.325-4.49 1.531-6.4 2.74-5.213-5.39-3.883-5.019-10.005 1.043-3.757 3.807-3.743 3.776-3.604 3.777l28.926.105c9.395.881 17.263 9.105 16.78 19.37-.47 9.942-8.19 17.163-18.195 17.722z" fill="#6d6e70" fill-rule="evenodd"/></svg>