<svg xmlns="http://www.w3.org/2000/svg" width="307" height="307" viewBox="0 0 81.227 81.227"><path stroke-miterlimit="22.926" d="M48.66 59.171l-27.468.025c.863 1.108 2.586 2.71 3.793 3.93 6.316 6.251 4.6 6.175 10.043.85 1.902.993 3.529 1.828 6.15 2.61-.009 3.76-.246 5.37.486 6.042.731.67 2.233.39 6.3.41 4.069.019 6.158.283 6.972-.411.815-.694.555-2.33.522-6.072 2.146-.619 4.216-1.423 6.15-2.56 5.214 5.243 3.863 5.228 9.693-.6 5.7-5.607 5.545-4.51.397-9.534 1.017-1.682 1.93-3.895 2.547-6.156 3.802.015 5.44.276 6.124-.476.684-.753.397-2.485.399-6.56.001-4.076.258-5.948-.435-6.745-.694-.797-2.322-.553-6.042-.5-.454-2.27-1.505-4.442-2.44-6.156 4.98-4.962 4.96-3.804-.235-9.128-6.156-6.078-4.824-6.072-9.8-1.088-1.885-1.157-4.022-1.983-6.336-2.67-.057-3.617.198-5.169-.566-5.817-.763-.647-2.552-.39-6.674-.39s-5.85-.242-6.574.418c-.724.66-.437 2.22-.507 5.821-1.418.325-4.49 1.531-6.4 2.74-5.212-5.39-3.883-5.019-10.004 1.043-3.757 3.807-3.743 3.776-3.604 3.777l28.925.105c9.395.881 17.263 9.105 16.78 19.37-.47 9.942-8.19 17.163-18.195 17.722z" fill="#6d6e70" fill-rule="evenodd" stroke="#000" stroke-width=".529" stroke-linecap="round" stroke-linejoin="round"/><path d="M13.73 24.026a3.302 3.302 0 1 0 2.76 5.052l7.466.007c-.685 1.483-1.26 3-1.62 4.504l.894-.012a3.303 3.303 0 1 1 0 3.5L6.505 37.02a3.303 3.303 0 1 0-2.8 5.053c1.138 0 2.197-.515 2.8-1.48l16.265.064a3.303 3.303 0 1 1 2.8 5.053c-1.138 0-2.196-.634-2.8-1.6l-7.248-.034a3.303 3.303 0 1 0-2.8 5.053c1.138 0 2.197-.515 2.8-1.48 2.19.026 4.72.063 6.91.09.394 1.58.985 2.907 1.579 4.268l-2.385.017c-.604-.966-1.662-1.48-2.8-1.48a3.303 3.303 0 1 0 2.799 5.052l15.928.015c-4.975-3.485-7.94-9.08-7.94-15.154a18.62 18.62 0 0 1 7.415-14.87l-20.538-.01a3.302 3.302 0 0 0-2.76-1.551zm-.042 1.81a1.492 1.492 0 0 1 0 2.984 1.492 1.492 0 0 1 0-2.984zm12.358 7.998a1.492 1.492 0 0 0 0 2.985 1.492 1.492 0 1 0 0-2.984zM3.702 37.278a1.492 1.492 0 1 1 0 2.984 1.492 1.492 0 0 1 0-2.984zm21.787 3.636a1.493 1.493 0 0 0 0 2.985 1.493 1.493 0 1 0 0-2.985zm-12.767 3.419a1.493 1.493 0 1 1 0 2.985 1.493 1.493 0 0 1 0-2.985zm6.103 8.02a1.493 1.493 0 1 1 0 2.985 1.493 1.493 0 0 1 0-2.985z" fill="#2e3092" fill-rule="evenodd" stroke="#000" stroke-width=".52916" stroke-linecap="round" stroke-miterlimit="22.926"/><path stroke-miterlimit="22.926" font-weight="400" d="M54.746 36.235v7.53l.538.536 1.613-1.613v-4.303h8.605V37.31l-1.076-1.075zm-23.663.021v2.15h8.605v6.454h2.15v-7.528l-1.074-1.076h-9.68zm2.15 2.15l-2.15 2.152v4.302h2.15v-6.453zm9.68-2.15v2.15h8.606v1.076l1.076 1.076h-7.53v-2.15l-2.15 2.15v4.302h2.15v-2.15h7.53l1.075-1.076v-4.302l-1.075-1.076h-9.68zm15.06 3.205v2.15h5.378v1.077h-4.928l-2.15 2.151H65.5v-5.378h-7.53zm-22.587.021v5.378h2.15v-5.378z" style="-inkscape-font-specification:'Digital Desolation Plus'" font-family="Digital Desolation Plus" fill="#ed1c24" stroke="#000" stroke-width=".529" stroke-linecap="round" stroke-linejoin="round"/></svg>